<svg width="955" height="955" viewBox="0 0 955 955" fill="none" xmlns="http://www.w3.org/2000/svg">
<circle cx="477.5" cy="477.5" r="452.5" stroke="white" stroke-width="50"/>
<path d="M238 652C754 607.5 754 114 754 114" stroke="white" stroke-width="50"/>
<path d="M618 476C618 476 865.553 391.604 890 295" stroke="white" stroke-width="50" stroke-linecap="round"/>
<path d="M512.952 565.667C512.952 565.667 760.943 601.695 929.072 469.393" stroke="white" stroke-width="50" stroke-linecap="round"/>
<path d="M381 635C381 635 639.774 748.758 893 652.002" stroke="white" stroke-width="50" stroke-linecap="round"/>
<path d="M254 660.5C254 660.5 489.189 840.973 777 816.914" stroke="white" stroke-width="50" stroke-linecap="round"/>
<path fill-rule="evenodd" clip-rule="evenodd" d="M488.039 366.396C488.039 366.396 573.047 402.884 580.547 444.871C134.507 444.871 91 897.347 591.548 897.347C590.002 897.724 587.906 898.278 585.297 898.967C519.563 916.331 128.749 1019.57 34 539.5C14.5 49 410.032 49 410.032 49C152 82 38.6222 414.88 221.015 313.913C222.686 312.988 224.678 311.849 226.962 310.542C270.02 285.917 417.287 201.693 488.039 366.396ZM380.866 351.042C394.189 352.859 419.586 340.513 419.586 340.513C419.586 340.513 412.802 318.012 392.021 311.733C368.995 304.775 347.496 323.839 347.496 323.839C347.496 323.839 365.504 348.946 380.866 351.042Z" fill="white"/>
<path d="M580.547 444.871V449.871H586.52L585.469 443.991L580.547 444.871ZM488.039 366.396L483.445 368.369L484.233 370.203L486.067 370.991L488.039 366.396ZM591.548 897.347L592.732 902.205L591.548 892.347V897.347ZM585.297 898.967L586.574 903.801L586.574 903.801L585.297 898.967ZM34 539.5L29.004 539.699L29.0194 540.087L29.0947 540.468L34 539.5ZM410.032 49L410.666 53.9596L410.032 44V49ZM221.015 313.913L223.437 318.288L223.437 318.288L221.015 313.913ZM226.962 310.542L229.445 314.883L229.445 314.883L226.962 310.542ZM419.586 340.513L421.772 345.01L425.603 343.148L424.373 339.07L419.586 340.513ZM380.866 351.042L380.19 355.996L380.19 355.996L380.866 351.042ZM392.021 311.733L393.467 306.947L393.467 306.947L392.021 311.733ZM347.496 323.839L344.179 320.098L340.806 323.09L343.433 326.753L347.496 323.839ZM585.469 443.991C583.341 432.079 575.845 421.054 566.521 411.419C557.134 401.719 545.463 392.987 534.198 385.692C522.909 378.381 511.882 372.419 503.689 368.289C499.588 366.221 496.186 364.607 493.802 363.506C492.609 362.956 491.671 362.533 491.026 362.247C490.704 362.103 490.454 361.994 490.284 361.92C490.198 361.882 490.132 361.854 490.087 361.834C490.064 361.824 490.046 361.816 490.034 361.811C490.027 361.808 490.022 361.806 490.018 361.804C490.017 361.804 490.015 361.803 490.014 361.802C490.012 361.802 490.011 361.801 488.039 366.396C486.067 370.991 486.066 370.99 486.066 370.99C486.066 370.99 486.066 370.99 486.067 370.991C486.069 370.991 486.071 370.992 486.075 370.994C486.083 370.998 486.096 371.003 486.114 371.011C486.151 371.027 486.207 371.051 486.282 371.084C486.434 371.15 486.663 371.251 486.965 371.385C487.569 371.653 488.464 372.056 489.611 372.585C491.905 373.644 495.202 375.209 499.188 377.218C507.168 381.241 517.862 387.026 528.762 394.085C539.687 401.16 550.674 409.423 559.335 418.373C568.06 427.388 574.003 436.669 575.625 445.75L585.469 443.991ZM591.548 892.347C467.103 892.347 377.09 864.217 318.844 822.58C260.676 780.999 234.111 725.949 236.074 671.288C239.997 562.088 358.791 449.871 580.547 449.871V439.871C356.264 439.871 230.285 553.892 226.08 670.929C223.981 729.387 252.514 787.457 313.028 830.715C373.465 873.917 465.719 902.347 591.548 902.347V892.347ZM586.574 903.801C589.203 903.106 591.244 902.567 592.732 902.205L590.364 892.489C588.76 892.88 586.608 893.449 584.02 894.132L586.574 903.801ZM29.0947 540.468C52.9153 661.16 95.4268 745.592 147.126 803.952C198.844 862.333 259.523 894.359 319.217 910.594C438.373 943.002 553.657 912.496 586.574 903.801L584.021 894.132C551.204 902.801 438.214 932.595 321.841 900.945C263.772 885.151 204.873 854.058 154.611 797.321C104.33 740.562 62.4594 657.873 38.9054 538.532L29.0947 540.468ZM410.032 49C410.032 44 410.027 44 410.021 44C410.017 44 410.01 44 410.002 44C409.986 44.0001 409.963 44.0002 409.935 44.0003C409.879 44.0006 409.799 44.0011 409.696 44.0021C409.489 44.0041 409.189 44.0081 408.798 44.016C408.016 44.0316 406.871 44.0626 405.388 44.124C402.422 44.2468 398.104 44.4912 392.632 44.9776C381.689 45.9504 366.12 47.892 347.515 51.7692C310.324 59.5197 260.885 75.0292 212.021 106.093C113.942 168.444 19.1896 292.829 29.004 539.699L38.9961 539.301C29.3105 295.671 122.574 174.806 217.386 114.532C264.968 84.2833 313.193 69.1366 349.555 61.5589C367.726 57.772 382.905 55.8817 393.517 54.9384C398.822 54.4668 402.983 54.2322 405.801 54.1155C407.211 54.0571 408.285 54.0282 408.998 54.014C409.355 54.0068 409.621 54.0033 409.795 54.0016C409.881 54.0008 409.945 54.0004 409.984 54.0002C410.004 54.0001 410.018 54 410.026 54C410.03 54 410.031 54 410.033 54C410.033 54 410.032 54 410.032 49ZM218.594 309.539C196.102 321.989 178.731 327.42 166.008 327.875C153.541 328.322 145.903 324.04 141.552 317.1C136.966 309.786 135.386 298.515 137.577 283.906C139.75 269.418 145.544 252.3 154.826 233.951C192.041 160.383 283.626 70.207 410.666 53.9596L409.398 44.0404C278.406 60.793 184.286 153.558 145.903 229.437C136.285 248.451 130.061 266.602 127.688 282.423C125.333 298.123 126.678 312.203 133.08 322.413C139.717 332.998 151.13 338.415 166.366 337.869C181.346 337.332 200.33 331.079 223.437 318.288L218.594 309.539ZM224.48 306.202C222.185 307.515 220.228 308.634 218.594 309.539L223.437 318.288C225.145 317.342 227.17 316.184 229.445 314.883L224.48 306.202ZM492.633 364.422C474.631 322.516 451.556 295.986 426.053 280.452C400.55 264.917 373.077 260.655 346.769 262.483C294.433 266.119 245.92 293.94 224.48 306.202L229.445 314.883C251.062 302.52 297.711 275.916 347.462 272.459C372.196 270.741 397.497 274.766 420.851 288.992C444.206 303.218 466.071 327.924 483.445 368.369L492.633 364.422ZM419.586 340.513C417.4 336.017 417.4 336.016 417.401 336.016C417.401 336.016 417.401 336.016 417.401 336.016C417.401 336.016 417.401 336.016 417.4 336.017C417.398 336.017 417.395 336.019 417.391 336.021C417.382 336.025 417.367 336.033 417.346 336.043C417.304 336.063 417.238 336.094 417.151 336.136C416.975 336.219 416.71 336.344 416.365 336.504C415.675 336.824 414.666 337.283 413.411 337.831C410.895 338.928 407.413 340.369 403.542 341.75C399.657 343.136 395.461 344.433 391.5 345.272C387.461 346.128 384.033 346.427 381.542 346.088L380.19 355.996C384.36 356.565 389.102 356.002 393.573 355.055C398.121 354.091 402.772 352.642 406.902 351.168C411.045 349.69 414.746 348.158 417.408 346.997C418.742 346.416 419.821 345.925 420.572 345.577C420.947 345.402 421.241 345.264 421.444 345.167C421.546 345.119 421.625 345.081 421.68 345.055C421.707 345.042 421.729 345.031 421.744 345.024C421.752 345.02 421.758 345.017 421.763 345.015C421.765 345.014 421.767 345.013 421.768 345.012C421.769 345.012 421.77 345.011 421.77 345.011C421.771 345.011 421.772 345.01 419.586 340.513ZM390.575 316.519C399.473 319.208 405.526 325.414 409.442 331.26C411.387 334.164 412.747 336.897 413.616 338.895C414.05 339.89 414.356 340.692 414.55 341.229C414.646 341.497 414.714 341.698 414.755 341.823C414.776 341.885 414.79 341.928 414.797 341.951C414.8 341.962 414.802 341.968 414.803 341.97C414.803 341.97 414.803 341.969 414.802 341.967C414.802 341.966 414.801 341.965 414.801 341.963C414.8 341.962 414.8 341.961 414.8 341.96C414.799 341.958 414.799 341.957 419.586 340.513C424.373 339.07 424.372 339.068 424.372 339.066C424.372 339.066 424.371 339.063 424.371 339.062C424.37 339.059 424.369 339.055 424.367 339.052C424.365 339.044 424.362 339.035 424.359 339.025C424.353 339.004 424.345 338.978 424.335 338.947C424.315 338.884 424.288 338.8 424.254 338.696C424.185 338.488 424.087 338.199 423.958 337.84C423.699 337.121 423.314 336.117 422.786 334.904C421.734 332.486 420.099 329.202 417.75 325.695C413.079 318.722 405.35 310.537 393.467 306.947L390.575 316.519ZM347.496 323.839C350.814 327.58 350.813 327.581 350.811 327.582C350.811 327.582 350.81 327.583 350.809 327.584C350.808 327.585 350.808 327.585 350.807 327.586C350.806 327.587 350.807 327.586 350.808 327.585C350.812 327.582 350.82 327.575 350.833 327.563C350.86 327.54 350.906 327.5 350.972 327.444C351.104 327.333 351.313 327.159 351.594 326.934C352.156 326.482 353.005 325.827 354.101 325.052C356.3 323.498 359.454 321.494 363.258 319.698C370.953 316.065 380.731 313.545 390.575 316.519L393.467 306.947C380.285 302.963 367.8 306.496 358.989 310.655C354.54 312.756 350.881 315.083 348.33 316.886C347.05 317.79 346.039 318.569 345.336 319.134C344.984 319.416 344.709 319.645 344.515 319.809C344.417 319.891 344.34 319.957 344.284 320.006C344.256 320.03 344.233 320.05 344.216 320.066C344.207 320.073 344.2 320.08 344.193 320.085C344.19 320.088 344.188 320.091 344.185 320.093C344.184 320.094 344.182 320.095 344.182 320.096C344.18 320.097 344.179 320.098 347.496 323.839ZM381.542 346.088C378.808 345.715 375.558 344.233 372.006 341.788C368.512 339.384 365.069 336.288 361.988 333.151C358.92 330.028 356.298 326.952 354.439 324.652C353.513 323.505 352.782 322.559 352.288 321.906C352.041 321.579 351.853 321.326 351.73 321.159C351.668 321.075 351.623 321.013 351.594 320.973C351.58 320.954 351.57 320.94 351.564 320.931C351.561 320.927 351.559 320.925 351.558 320.924C351.558 320.923 351.558 320.923 351.558 320.923C351.558 320.923 351.558 320.924 351.558 320.924C351.559 320.924 351.559 320.925 347.496 323.839C343.433 326.753 343.434 326.754 343.435 326.755C343.435 326.755 343.436 326.756 343.436 326.757C343.438 326.759 343.439 326.761 343.441 326.764C343.444 326.769 343.449 326.775 343.455 326.783C343.466 326.799 343.482 326.821 343.503 326.849C343.543 326.905 343.601 326.984 343.675 327.084C343.823 327.286 344.037 327.574 344.312 327.938C344.863 328.666 345.659 329.698 346.661 330.937C348.659 333.41 351.499 336.743 354.853 340.158C358.194 343.559 362.133 347.133 366.336 350.026C370.481 352.878 375.242 355.321 380.19 355.996L381.542 346.088Z" fill="white"/>
<path d="M210.482 239.625C210.334 261.606 267.979 322.954 329.227 295.31C356.404 283.043 305.087 296.131 329.227 286.5C360.399 274.064 360.58 263.469 315 268.5C315 268.5 231.204 284.142 210.482 239.625Z" fill="white"/>
<ellipse cx="399.409" cy="328.078" rx="11.648" ry="13.3527" transform="rotate(-78.4884 399.409 328.078)" fill="white"/>
</svg>
